<svg width="120" height="92" viewBox="0 0 120 92" fill="none" xmlns="http://www.w3.org/2000/svg">
<path d="M63.7148 56.3019C63.6777 56.3058 63.6426 56.3077 63.6077 56.3115C64.1964 56.2464 64.9011 56.4399 65.503 56.4493C66.228 56.4608 66.9541 56.4233 67.6738 56.3341C69.3898 56.1209 71.0684 55.6105 72.6248 54.8607C72.6248 54.8607 72.6014 54.8412 72.5644 54.8003C72.4317 54.6621 72.1216 54.2803 72.1295 53.7779C69.5684 55.1218 66.7264 55.998 63.7148 56.3019Z" fill="#781C6D"/>
<path d="M43.4701 48.0051C41.8435 46.0441 40.5366 43.8122 39.6257 41.3856C39.6667 42.0185 39.7329 42.6727 39.8323 43.3487C39.8383 43.3877 39.8441 43.4285 39.8499 43.4675C39.887 43.711 39.9103 43.9387 39.9221 44.1531C40.4468 46.681 41.4845 49.2535 43.7569 51.3552C43.7569 51.3552 43.7412 51.3044 43.7198 51.2167C43.7179 51.2109 43.716 51.2051 43.716 51.1991C43.4624 50.7436 42.8128 49.3471 43.4701 48.0051Z" fill="#781C6D"/>
<path d="M56.4473 55.8948C55.4994 55.6943 54.5748 55.4332 53.6736 55.1159C54.4306 55.8677 55.2848 56.5627 56.2385 57.1235C56.266 57.1394 56.2951 57.1569 56.3245 57.1723C56.3616 57.1819 56.3984 57.1901 56.4357 57.1978C56.4357 57.1978 56.4319 57.1841 56.4258 57.1608C56.3945 57.0108 56.2874 56.4208 56.4473 55.8948Z" fill="#781C6D"/>
<path d="M44.2484 17.5881C47.338 14.2207 51.4126 11.7686 56.0161 10.6861L54.8573 10.5476L54.8144 10.5418C54.8301 10.5495 54.8436 10.5572 54.8573 10.5651C54.8573 10.5651 45.5125 10.2613 40.2458 17.6621C40.2458 17.6621 40.2733 17.6583 40.3219 17.6542C40.3239 17.6523 40.3239 17.6523 40.3258 17.6523C40.3513 17.6465 40.3922 17.6347 40.4488 17.6191C40.9619 17.483 42.6822 17.1013 44.2484 17.5881Z" fill="#781C6D"/>
<path d="M38.2565 31.0243C38.4614 28.8587 38.9665 26.7787 39.729 24.829C39.4266 25.1194 39.1497 25.3998 38.9099 25.6666C38.824 25.764 38.7421 25.8594 38.666 25.9529C38.5587 26.0854 38.4652 26.1847 38.387 26.2469C36.8559 28.2413 35.4556 30.5978 35.2136 33.3692C35.2351 33.3399 35.2565 33.3108 35.2779 33.2795C36.0953 32.1636 37.168 31.0399 38.2565 31.0243Z" fill="#781C6D"/>
<path d="M84.7319 29.1217L84.301 29.6768L84.2424 29.7528L83.9634 29.7722L83.1344 29.8285C83.3511 30.8997 83.464 32.0099 83.464 33.1454C83.464 37.5058 81.7945 41.4749 79.0618 44.455C77.4409 46.8756 75.4066 48.3519 73.415 49.2866C73.3507 49.3157 73.2883 49.3453 73.2238 49.3725C72.826 49.5537 72.4319 49.7112 72.0418 49.8516C72.0243 49.8574 72.0067 49.8653 71.9891 49.8711C69.1844 50.874 66.6895 50.9519 65.8547 51.3084C65.7026 51.3726 65.6051 51.4467 65.5718 51.5383C65.0804 52.8663 66.9043 53.505 66.9043 53.505C61.2476 54.0233 57.7367 51.396 55.4058 49.4912C55.4038 49.4893 55.4019 49.4871 55.4 49.4871C54.2686 48.5604 53.4163 47.8065 52.7315 47.6704C52.6906 47.6605 52.6516 47.6545 52.6126 47.6509C50.5431 47.454 50.5918 49.1756 50.5918 49.1756C47.586 45.043 46.5524 38.7446 44.631 39.286C42.7077 39.8274 42.6102 41.5997 42.6102 41.5997C41.1319 37.7123 42.5616 32.8415 44.9744 30.6759C47.389 28.512 46.7982 25.657 44.9744 25.7563C43.1527 25.8536 42.4133 27.2326 42.4133 27.2326C42.3995 27.1662 42.388 27.1001 42.3781 27.0338L42.4133 26.9852C42.4133 26.9852 42.6415 21.7521 49.913 18.9105C50.4943 18.6828 51.1224 18.4703 51.7993 18.2777C62.6636 15.1772 51.5768 10.4542 61.7527 16.0497L61.7234 16.073C54.4559 17.9094 49.0783 24.4826 49.0783 32.31C49.0783 37.1476 51.1321 41.5062 54.4188 44.562C52.1464 42.1315 50.5937 39.0271 50.0924 35.5819C50.0907 35.5759 50.0907 35.5682 50.0886 35.5624C50.0886 35.5564 50.0866 35.5525 50.0866 35.5468C49.9735 34.7618 49.915 33.9613 49.915 33.1454C49.915 32.7403 49.9287 32.339 49.9578 31.9417C49.96 31.9183 49.9619 31.895 49.9639 31.8715C50.6132 23.2166 57.8537 16.3963 66.6895 16.3963C67.0232 16.3963 67.3548 16.406 67.6844 16.4254L66.7343 10.6918C65.0101 10.2828 63.2118 10.0667 61.3627 10.0667C59.5234 10.0667 57.7328 10.2809 56.0164 10.686C51.4131 11.7688 47.3382 14.2209 44.2487 17.5883C44.5843 17.6914 44.912 17.8356 45.2202 18.0304C46.9677 19.1365 42.3743 22.3072 39.7294 24.8293C38.9666 26.7787 38.4615 28.8587 38.2568 31.0245C38.442 31.0226 38.6293 31.0517 38.8147 31.118C40.8861 31.8676 39.2515 35.7239 39.6261 41.3855C40.5369 43.8121 41.8438 46.0441 43.4705 48.005C43.6012 47.7343 43.7864 47.4658 44.038 47.2067C45.8113 45.3877 48.374 46.9614 49.6557 49.421C50.3792 50.8096 51.7017 53.1586 53.6737 55.1157C54.5749 55.4333 55.4994 55.6944 56.4473 55.8949C56.5487 55.5578 56.7575 55.2482 57.1651 55.0943C57.1906 55.0828 57.214 55.0751 57.2412 55.0653C57.6625 54.9328 58.277 54.9542 59.1664 55.2501C60.4908 55.6903 61.981 56.1052 63.6076 56.3118C63.61 56.3118 63.6127 56.3118 63.6151 56.3118C66.664 56.0173 69.5402 55.1364 72.1295 53.7779C72.1295 53.7779 72.1165 53.4045 72.2674 53.1216C72.4406 52.797 72.8142 52.541 73.1126 52.3314C73.6394 51.9619 74.23 51.6933 74.8305 51.4671C75.3741 51.2618 75.8756 51.118 76.505 50.8077C76.5069 50.8067 76.5086 50.8053 76.5106 50.8038C80.5789 47.3028 83.4166 42.4147 84.2896 36.8769C84.3332 36.5995 84.7262 36.5853 84.7887 36.8589C84.79 36.8642 84.7912 36.8697 84.7924 36.8748C84.8275 36.5944 84.8569 36.3101 84.8822 36.0199C85.0635 33.9673 85.0363 31.675 84.7319 29.1217Z" fill="#451065"/>
<path d="M80.0332 48.0383C79.9843 48.0888 79.9357 48.1415 79.8849 48.1922C79.8168 48.2641 79.7465 48.334 79.6764 48.4042C79.6509 48.4297 79.6256 48.4569 79.5981 48.484C79.7465 48.3422 79.8909 48.1922 80.0332 48.0383Z" fill="white"/>
<path d="M83.0872 22.4895C82.8746 24.9351 82.5012 27.6647 81.8742 30.6065C81.3611 33.0144 80.752 35.216 80.1125 37.1955C80.7577 36.9075 81.403 36.6195 82.0485 36.3317C81.7979 37.9533 80.7541 42.821 77.0039 45.6619C74.2706 47.6442 70.8729 48.8559 67.1763 48.9448H67.1701C67.028 48.947 66.8859 48.9492 66.742 48.9492C57.452 48.9492 49.9188 41.8651 49.9188 33.1267C49.9188 26.5494 54.3957 20.0904 61.3044 19.1387C61.8485 19.8986 62.6188 20.6888 63.7786 20.6886C67.5919 20.6879 69.22 20.1455 71.2877 20.6886C73.3552 21.2319 75.5862 23.4595 75.5862 23.4595L77.5995 21.4492L78.2523 23.4595C78.2523 23.4595 80.2827 19.626 80.2827 15.7144C80.2827 15.7144 77.1618 18.2463 74.4435 13.5171C73.4641 10.5834 56.8138 6.99751 55.9431 0.151733C55.9431 0.151733 53.1136 6.45419 59.7521 9.93141L53.1136 6.88884C53.1136 6.88884 53.5426 9.35588 55.5914 11.3118C50.0392 12.3186 46.3205 15.2035 43.8348 18.6697C43.9164 18.8137 43.9718 18.9819 43.9891 19.1755C44.1119 20.5244 43.1043 21.9574 42.0251 22.6825C41.8173 22.8219 41.6028 22.9477 41.3864 23.0693C39.1337 28.363 38.8869 33.7765 38.9394 35.5966C42.0523 53.8866 62.4986 54.0734 62.7432 54.0734C71.6706 54.0734 79.4183 48.6027 82.7829 40.8646L82.7865 40.8588L82.7874 40.8542C83.575 39.0404 84.1225 37.102 84.3869 35.0804L84.3874 35.0797C85.6878 26.396 83.0872 22.4895 83.0872 22.4895Z" fill="#451065"/>
<mask id="mask0_237_559" style="mask-type:luminance" maskUnits="userSpaceOnUse" x="38" y="0" width="47" height="55">
<path d="M59.7522 9.93154L53.1139 6.88897C53.1139 6.88897 53.5429 9.35601 55.5914 11.3119C39.9068 14.1564 38.8352 31.9784 38.9394 35.5967C42.0523 53.8867 62.4989 54.0735 62.7435 54.0735C71.6706 54.0735 79.4183 48.6031 82.7831 40.8647L82.7867 40.8592L82.7875 40.8544C83.575 39.0405 84.1225 37.1024 84.3871 35.0808L84.3874 35.0801C85.6878 26.3962 83.0875 22.4898 83.0875 22.4898C82.8749 24.9352 82.5014 27.6648 81.8742 30.6066C81.3611 33.0145 80.7522 35.2164 80.1125 37.1956C80.7578 36.9079 81.4033 36.6199 82.0488 36.3319C81.7979 37.9536 80.7541 42.8214 77.0041 45.662C74.2709 47.6446 70.8729 48.8562 67.1763 48.9452H67.1701C67.0283 48.9474 66.886 48.9493 66.742 48.9493C57.4523 48.9493 49.9191 41.8653 49.9191 33.127C49.9191 26.5495 54.3957 20.0908 61.3046 19.1391C61.8488 19.8987 62.6188 20.6892 63.7788 20.6889C67.5919 20.688 69.22 20.1456 71.2877 20.6889C73.3555 21.2323 75.5865 23.4599 75.5865 23.4599L77.5996 21.4496L78.2525 23.4599C78.2525 23.4599 80.283 19.6264 80.283 15.7145C80.283 15.7145 77.1621 18.2464 74.4435 13.5174C73.4641 10.5835 56.8138 6.99763 55.9432 0.1521C55.9432 0.1521 53.1139 6.45432 59.7522 9.93154Z" fill="#8A267E"/>
</mask>
<g mask="url(#mask0_237_559)">
<path d="M53.6135 6.41315L76.1781 16.8236L77.9447 21.4493C77.0695 20.2989 75.6503 18.7257 73.528 17.4776C69.6689 15.2084 66.5523 15.819 63.1693 14.9396C60.2735 14.1866 55.7013 12.1528 53.6135 6.41315Z" fill="#8A267E"/>
</g>
<mask id="mask1_237_559" style="mask-type:luminance" maskUnits="userSpaceOnUse" x="38" y="0" width="47" height="55">
<path d="M59.7522 9.93154L53.1139 6.88897C53.1139 6.88897 53.5429 9.35601 55.5914 11.3119C39.9068 14.1564 38.8352 31.9784 38.9394 35.5967C42.0523 53.8867 62.4989 54.0735 62.7435 54.0735C71.6706 54.0735 79.4183 48.6031 82.7831 40.8647L82.7867 40.8592L82.7875 40.8544C83.575 39.0405 84.1225 37.1024 84.3871 35.0808L84.3874 35.0801C85.6878 26.3962 83.0875 22.4898 83.0875 22.4898C82.8749 24.9352 82.5014 27.6648 81.8742 30.6066C81.3611 33.0145 80.7522 35.2164 80.1125 37.1956C80.7578 36.9079 81.4033 36.6199 82.0488 36.3319C81.7979 37.9536 80.7541 42.8214 77.0041 45.662C74.2709 47.6446 70.8729 48.8562 67.1763 48.9452H67.1701C67.0283 48.9474 66.886 48.9493 66.742 48.9493C57.4523 48.9493 49.9191 41.8653 49.9191 33.127C49.9191 26.5495 54.3957 20.0908 61.3046 19.1391C61.8488 19.8987 62.6188 20.6892 63.7788 20.6889C67.5919 20.688 69.22 20.1456 71.2877 20.6889C73.3555 21.2323 75.5865 23.4599 75.5865 23.4599L77.5996 21.4496L78.2525 23.4599C78.2525 23.4599 80.283 19.6264 80.283 15.7145C80.283 15.7145 77.1621 18.2464 74.4435 13.5174C73.4641 10.5835 56.8138 6.99763 55.9432 0.1521C55.9432 0.1521 53.1139 6.45432 59.7522 9.93154Z" fill="#781C6D"/>
</mask>
<g mask="url(#mask1_237_559)">
<path d="M54.9519 5.49109L77.5165 15.9016L79.283 20.5272C78.4078 19.3769 76.9887 17.8037 74.8663 16.5555C71.0072 14.2863 67.8907 14.8969 64.5076 14.0175C61.6119 13.2646 57.0396 11.2308 54.9519 5.49109Z" fill="#781C6D"/>
</g>
<mask id="mask2_237_559" style="mask-type:luminance" maskUnits="userSpaceOnUse" x="38" y="0" width="47" height="55">
<path d="M59.7522 9.93154L53.1139 6.88897C53.1139 6.88897 53.5429 9.35601 55.5914 11.3119C39.9068 14.1564 38.8352 31.9784 38.9394 35.5967C42.0523 53.8867 62.4989 54.0735 62.7435 54.0735C71.6706 54.0735 79.4183 48.6031 82.7831 40.8647L82.7867 40.8592L82.7875 40.8544C83.575 39.0405 84.1225 37.1024 84.3871 35.0808L84.3874 35.0801C85.6878 26.3962 83.0875 22.4898 83.0875 22.4898C82.8749 24.9352 82.5014 27.6648 81.8742 30.6066C81.3611 33.0145 80.7522 35.2164 80.1125 37.1956C80.7578 36.9079 81.4033 36.6199 82.0488 36.3319C81.7979 37.9536 80.7541 42.8214 77.0041 45.662C74.2709 47.6446 70.8729 48.8562 67.1763 48.9452H67.1701C67.0283 48.9474 66.886 48.9493 66.742 48.9493C57.4523 48.9493 49.9191 41.8653 49.9191 33.127C49.9191 26.5495 54.3957 20.0908 61.3046 19.1391C61.8488 19.8987 62.6188 20.6892 63.7788 20.6889C67.5919 20.688 69.22 20.1456 71.2877 20.6889C73.3555 21.2323 75.5865 23.4599 75.5865 23.4599L77.5996 21.4496L78.2525 23.4599C78.2525 23.4599 80.283 19.6264 80.283 15.7145C80.283 15.7145 77.1621 18.2464 74.4435 13.5174C73.4641 10.5835 56.8138 6.99763 55.9432 0.1521C55.9432 0.1521 53.1139 6.45432 59.7522 9.93154Z" fill="#C0177B"/>
</mask>
<g mask="url(#mask2_237_559)">
<path d="M56.4508 -1.53699C56.4508 -1.53699 56.7667 3.19346 61.9485 5.59896C67.1307 8.00421 75.1975 10.6665 76.1244 13.3763C77.0512 16.0857 81.2582 13.5725 81.2582 13.5725C81.2582 13.5725 79.8983 22.9976 78.5333 24.3607L77.5994 21.4496L77.3112 20.644C76.6686 18.69 75.3426 17.0269 73.5629 15.9917C72.6944 15.4868 71.6093 14.9925 70.2624 14.5788C67.9659 13.8732 63.5384 12.0142 59.752 9.93178C59.1794 9.61661 58.5537 9.31586 58.0517 8.94179C54.313 6.15525 52.387 2.52057 56.4508 -1.53699Z" fill="#C0177B"/>
</g>
<mask id="mask3_237_559" style="mask-type:luminance" maskUnits="userSpaceOnUse" x="55" y="0" width="26" height="24">
<path d="M59.4747 9.78153C59.5679 9.83129 59.6608 9.88129 59.7521 9.93154C63.5384 12.0142 67.966 13.873 70.2622 14.5788C71.6093 14.9925 72.6945 15.4866 73.5627 15.9917C75.3425 17.0269 76.6687 18.6897 77.311 20.644L77.5995 21.4496L78.2525 23.4599C78.2525 23.4599 80.2829 19.6264 80.2829 15.7145C80.2829 15.7145 77.162 18.2464 74.4435 13.5174C73.464 10.5835 56.8137 6.99763 55.9431 0.1521C55.9431 0.1521 53.1937 6.27642 59.4747 9.78153Z" fill="#E84A86"/>
</mask>
<g mask="url(#mask3_237_559)">
<path d="M78.341 23.6311C78.341 23.6311 79.7059 22.1343 78.9831 19.1679C78.2606 16.2013 73.0144 15.0253 71.9704 13.9829C70.9264 12.9405 71.9704 12.5131 71.9704 12.5131C71.9704 12.5131 50.7443 4.76239 56.9275 -1.41121C63.1105 -7.58505 78.7156 9.22575 78.7156 9.22575L84.7515 13.5552V18.4193C84.7515 18.7936 78.341 23.6311 78.341 23.6311Z" fill="#E84A86"/>
</g>
<mask id="mask4_237_559" style="mask-type:luminance" maskUnits="userSpaceOnUse" x="38" y="0" width="47" height="55">
<path d="M59.7522 9.93154L53.1139 6.88897C53.1139 6.88897 53.5429 9.35601 55.5914 11.3119C39.9068 14.1564 38.8352 31.9784 38.9394 35.5967C42.0523 53.8867 62.4989 54.0735 62.7435 54.0735C71.6706 54.0735 79.4183 48.6031 82.7831 40.8647L82.7867 40.8592L82.7875 40.8544C83.575 39.0405 84.1225 37.1024 84.3871 35.0808L84.3874 35.0801C85.6878 26.3962 83.0875 22.4898 83.0875 22.4898C82.8749 24.9352 82.5014 27.6648 81.8742 30.6066C81.3611 33.0145 80.7522 35.2164 80.1125 37.1956C80.7578 36.9079 81.4033 36.6199 82.0488 36.3319C81.7979 37.9536 80.7541 42.8214 77.0041 45.662C74.2709 47.6446 70.8729 48.8562 67.1763 48.9452H67.1701C67.0283 48.9474 66.886 48.9493 66.742 48.9493C57.4523 48.9493 49.9191 41.8653 49.9191 33.127C49.9191 26.5495 54.3957 20.0908 61.3046 19.1391C61.8488 19.8987 62.6188 20.6892 63.7788 20.6889C67.5919 20.688 69.22 20.1456 71.2877 20.6889C73.3555 21.2323 75.5865 23.4599 75.5865 23.4599L77.5996 21.4496L78.2525 23.4599C78.2525 23.4599 80.283 19.6264 80.283 15.7145C80.283 15.7145 77.1621 18.2464 74.4435 13.5174C73.4641 10.5835 56.8138 6.99763 55.9432 0.1521C55.9432 0.1521 53.1139 6.45432 59.7522 9.93154Z" fill="#2B0042"/>
</mask>
<g mask="url(#mask4_237_559)">
<path d="M58.7209 46.9097C58.7209 46.9097 75.2629 56.3706 83.6945 38.3304C92.126 20.2904 82.8111 21.3328 82.8111 21.3328L74.0583 31.355L58.7209 46.9097Z" fill="#2B0042"/>
</g>
<path d="M71.2876 20.6886C71.2876 20.6886 66.3106 20.5401 58.9192 21.7209C58.9192 21.7209 61.2845 18.4738 64.6845 17.2929C68.0846 16.112 71.2876 20.6886 71.2876 20.6886Z" fill="#451065"/>
<path d="M58.9192 21.7211C58.9192 21.7211 72.0759 19.3103 75.6237 19.8269C75.6237 19.8269 69.652 18.4893 66.1134 18.1787C61.9127 17.8094 58.9192 21.7211 58.9192 21.7211Z" fill="#781C6D"/>
<path d="M75.6237 19.8268L58.9192 21.721C58.9192 21.721 60.6561 17.4896 75.6237 19.8268Z" fill="#C0177B"/>
<path d="M66.9756 20.7986L75.6236 19.8269C75.6236 19.8269 74.1807 21.2494 75.586 23.4594C75.586 23.4594 71.7063 20.7618 66.9756 20.7986Z" fill="#310C4A"/>
<path d="M54.4184 44.562C51.1319 41.5062 49.0778 37.1477 49.0778 32.31C49.0778 24.4827 54.4555 17.9095 61.7231 16.073L61.7523 16.0497C51.5766 10.4543 62.6634 15.1773 51.7988 18.2778C51.122 18.4704 50.4941 18.6829 49.9128 18.9105C42.6411 21.7521 42.4131 26.9853 42.4131 26.9853L42.3779 27.0338C42.3875 27.1002 42.3993 27.1663 42.4131 27.2326C42.4131 27.2326 43.1522 25.8537 44.9739 25.7563C46.7977 25.657 47.3888 28.5121 44.9739 30.676C42.5611 32.8415 41.1314 37.7124 42.61 41.5997C42.61 41.5997 42.7075 39.8275 44.6308 39.2861C46.5519 38.7447 47.5858 45.0431 50.5913 49.1756C50.5913 49.1756 50.5427 47.4541 52.6124 47.651C52.6514 47.6546 52.6904 47.6606 52.7313 47.6704C53.4158 47.8065 54.2681 48.5604 55.3995 49.4872C55.4015 49.4872 55.4034 49.4893 55.4055 49.4913C57.7362 51.396 61.2471 54.0231 66.9038 53.5051C66.9038 53.5051 65.08 52.8663 65.5716 51.5383C65.6046 51.4467 65.7024 51.3727 65.8545 51.3083C66.859 50.8839 68.0961 50.8659 69.1565 50.6479C72.5506 49.9507 75.7406 48.471 78.0303 45.8119C78.4011 45.3811 78.7452 44.9272 79.0616 44.455C80.2083 42.7409 81.1888 40.5518 81.762 37.7456C81.7543 37.7708 81.7445 37.7941 81.7348 37.8196C81.6036 38.16 81.4777 38.5012 81.3214 38.8312C81.1589 39.174 80.9928 39.5152 80.8228 39.8544C80.6687 40.1619 80.5103 40.4669 80.3362 40.7636C79.9144 41.4822 79.4386 42.1695 78.9147 42.8176C77.8707 44.1093 76.6341 45.2462 75.2586 46.1785C72.5114 48.0399 69.1854 49.0588 65.8524 49.0588C61.4345 49.0588 57.4145 47.3526 54.4184 44.562Z" fill="#53009C"/>
<path d="M76.5098 50.8037C76.6073 50.7532 76.7067 50.6986 76.8083 50.64C80.7329 48.4359 83.1798 44.168 84.2395 39.9165C84.4776 38.9613 84.7918 37.8658 84.7918 36.8749C84.6688 36.3392 84.5597 35.8486 84.4699 35.4355C83.8945 41.5644 80.9277 47.0022 76.5098 50.8037Z" fill="#781C6D"/>
<path d="M53.6731 55.1158C51.7012 53.1584 50.3787 50.8097 49.6552 49.4211C48.3735 46.9613 45.8105 45.3876 44.0375 47.2067C43.7859 47.4659 43.6007 47.7344 43.47 48.0051C42.8127 49.347 43.462 50.7436 43.7156 51.1991C43.6084 50.7534 43.3821 49.46 44.1663 48.8097C44.3165 48.6869 44.5017 48.5857 44.7338 48.5196C44.761 48.5097 44.7904 48.5018 44.8178 48.496C45.0656 48.4337 45.3579 48.4102 45.7072 48.4337C47.5621 48.5563 48.7111 51.4972 50.9931 53.9801C52.2902 55.3942 53.9541 56.6582 56.3238 57.1725C56.2947 57.1568 56.2653 57.1393 56.2381 57.1237C55.2841 56.5628 54.4299 55.8675 53.6731 55.1158Z" fill="#310C4A"/>
<path d="M39.8323 43.3487C39.7328 42.6726 39.6666 42.0185 39.6257 41.3855C39.2511 35.724 40.8857 31.8676 38.8141 31.1181C38.6289 31.0517 38.4416 31.0226 38.2564 31.0242C37.1679 31.0399 36.0953 32.1638 35.2779 33.2798C35.2564 33.3108 35.235 33.3401 35.2136 33.3692C35.188 33.6478 35.1746 33.9301 35.1746 34.2164C35.1746 34.2164 35.1979 34.1969 35.2446 34.1659C35.3696 34.0782 35.6563 33.8892 36.0209 33.751C36.0835 33.7257 36.1478 33.7024 36.2142 33.681C36.2277 33.6772 36.2414 33.6731 36.2532 33.6692C36.3038 33.6536 36.3565 33.6399 36.4092 33.6284C36.971 33.4978 37.6302 33.5445 38.1705 34.1443C38.4493 34.4561 38.6951 34.9177 38.8805 35.5797C39.2549 36.9255 39.2843 38.8478 39.4774 40.9802C39.5691 42.0026 39.6996 43.0739 39.9221 44.1531C39.9103 43.9386 39.8869 43.711 39.8499 43.4674C39.8441 43.4285 39.8381 43.3876 39.8323 43.3487Z" fill="#310C4A"/>
<path d="M38.666 25.9529C38.7421 25.8594 38.824 25.764 38.9099 25.6666C39.1497 25.3998 39.4266 25.1195 39.729 24.8293C42.3739 22.307 46.9676 19.1365 45.2198 18.0302C44.9116 17.8354 44.5839 17.6914 44.2485 17.5883C42.6821 17.1012 40.9618 17.483 40.4487 17.6193C40.3921 17.6349 40.3514 17.6465 40.3259 17.6525C40.7198 17.6174 42.4365 17.5727 42.7367 19.411C42.7661 19.5882 42.7815 19.7851 42.7815 19.9993C42.7815 21.1386 41.4513 22.5856 39.9045 24.3949C39.409 24.9752 38.8923 25.5907 38.387 26.247C38.4652 26.1847 38.5586 26.0854 38.666 25.9529Z" fill="#310C4A"/>
<path d="M4.14632 88.4607H9.58149V91.5787H0.0698242V74.7506H4.14632V88.4607Z" fill="white"/>
<path d="M21.0235 77.9878V81.5105H26.7209V84.5807H21.0235V88.3178H27.4362V91.5787H16.947V74.7505H27.4362V77.9878H21.0235Z" fill="white"/>
<path d="M38.3777 74.7505L42.5018 87.4134L46.626 74.7505H50.9883L45.1241 91.5787H39.856L34.0154 74.7505H38.3777Z" fill="white"/>
<path d="M67.4368 85.4139L65.3389 79.2254L63.2175 85.4139H67.4368ZM68.4858 88.5084H62.1687L61.1196 91.5789H56.8286L63.003 74.8698H67.6989L73.873 91.5789H69.5346L68.4858 88.5084Z" fill="white"/>
<path d="M95.8764 91.5787H91.7999L84.982 81.2487V91.5787H80.9058V74.7505H84.982L91.7999 85.1757V74.7505H95.8764V91.5787Z" fill="white"/>
<path d="M113.564 85.4139L111.466 79.2254L109.344 85.4139H113.564ZM114.613 88.5084H108.296L107.247 91.5789H102.956L109.13 74.8698H113.826L120 91.5789H115.662L114.613 88.5084Z" fill="white"/>
</svg>
