<svg width="20" height="20" viewBox="0 0 20 20" fill="none" xmlns="http://www.w3.org/2000/svg">
<rect x="3.75" y="6.25" width="5" height="8.75" rx="1.25" fill="#868388"/>
<rect x="10.625" y="4.375" width="5" height="11.25" rx="1.25" fill="#868388"/>
<path d="M5 5C5 4.30964 5.55964 3.75 6.25 3.75C6.94036 3.75 7.5 4.30964 7.5 5V5.625H5V5Z" fill="#868388"/>
<path d="M11.875 3.125C11.875 2.43464 12.4346 1.875 13.125 1.875C13.8154 1.875 14.375 2.43464 14.375 3.125V3.75H11.875V3.125Z" fill="#868388"/>
<path d="M5 16.25C5 16.9404 5.55964 17.5 6.25 17.5C6.94036 17.5 7.5 16.9404 7.5 16.25V15.625H5V16.25Z" fill="#868388"/>
<path d="M11.875 16.875C11.875 17.5654 12.4346 18.125 13.125 18.125C13.8154 18.125 14.375 17.5654 14.375 16.875V16.25H11.875V16.875Z" fill="#868388"/>
</svg>
